<?xml version="1.0" encoding="UTF-8" standalone="no"?>
<svg
   xmlns:dc="http://purl.org/dc/elements/1.1/"
   xmlns:cc="http://creativecommons.org/ns#"
   xmlns:rdf="http://www.w3.org/1999/02/22-rdf-syntax-ns#"
   xmlns:svg="http://www.w3.org/2000/svg"
   xmlns="http://www.w3.org/2000/svg"
   xmlns:sodipodi="http://sodipodi.sourceforge.net/DTD/sodipodi-0.dtd"
   xmlns:inkscape="http://www.inkscape.org/namespaces/inkscape"
   width="474mm"
   height="315mm"
   viewBox="0 0 474 315"
   version="1.1"
   preserveAspectRatio="xMidYMid meet"
   id="svg15"
   sodipodi:docname="camargo box(2).svg"
   inkscape:version="1.0.2 (394de47547, 2021-03-26)">
  <metadata
     id="metadata21">
    <rdf:RDF>
      <cc:Work
         rdf:about="">
        <dc:format>image/svg+xml</dc:format>
        <dc:type
           rdf:resource="http://purl.org/dc/dcmitype/StillImage" />
        <dc:title></dc:title>
      </cc:Work>
    </rdf:RDF>
  </metadata>
  <defs
     id="defs19" />
  <sodipodi:namedview
     pagecolor="#ffffff"
     bordercolor="#666666"
     borderopacity="1"
     objecttolerance="10"
     gridtolerance="10"
     guidetolerance="10"
     inkscape:pageopacity="0"
     inkscape:pageshadow="2"
     inkscape:window-width="1853"
     inkscape:window-height="1025"
     id="namedview17"
     showgrid="false"
     inkscape:zoom="0.45254834"
     inkscape:cx="888.18524"
     inkscape:cy="731.30337"
     inkscape:window-x="67"
     inkscape:window-y="27"
     inkscape:window-maximized="1"
     inkscape:current-layer="svgGroup" />
  <g
     id="svgGroup"
     stroke-linecap="round"
     fill-rule="evenodd"
     font-size="9pt"
     stroke="#000"
     stroke-width="0.25mm"
     fill="none"
     style="stroke:#000;stroke-width:0.25mm;fill:none">
    <path
       d="M 0 239 L 0 260.875 L 3 260.875 L 3 293.125 L 0 293.125 L 0 315 L 29.625 315 L 29.625 312 L 61.875 312 L 61.875 315 L 94.125 315 L 94.125 312 L 126.375 312 L 126.375 315 L 156 315 L 156 293.125 L 153 293.125 L 153 260.875 L 156 260.875 L 156 239 L 126.375 239 L 126.375 242 L 94.125 242 L 94.125 239 L 61.875 239 L 61.875 242 L 29.625 242 L 29.625 239 L 0 239 Z"
       id="front_outsideCutPath"
       stroke="#FF0000"
       stroke-width="0.1"
       style="stroke:#FF0000;stroke-width:0.1;fill:none"
       vector-effect="non-scaling-stroke" />
    <path
       d="M 89.077 282.741 L 87.845 282.741 L 87.845 277.479 Q 87.845 276.845 87.661 276.416 A 1.466 1.466 0 0 0 87.392 275.994 A 1.389 1.389 0 0 0 86.823 275.631 Q 86.465 275.504 85.975 275.504 A 3.729 3.729 0 0 0 85.277 275.565 Q 84.522 275.709 84.104 276.195 A 2.014 2.014 0 0 0 83.754 276.807 Q 83.511 277.456 83.511 278.473 L 83.511 282.741 L 82.279 282.741 L 82.279 274.606 L 83.281 274.606 L 83.481 275.72 L 83.54 275.72 A 2.495 2.495 0 0 1 84.518 274.83 A 2.999 2.999 0 0 1 84.602 274.788 A 3.336 3.336 0 0 1 85.789 274.471 A 4.034 4.034 0 0 1 86.123 274.458 A 4.864 4.864 0 0 1 86.951 274.524 Q 87.819 274.674 88.335 275.167 A 2.135 2.135 0 0 1 88.855 275.983 Q 88.98 276.32 89.035 276.737 A 5.377 5.377 0 0 1 89.077 277.434 L 89.077 282.741 Z M 65.409 274.606 L 65.409 275.564 L 63.338 275.564 L 63.338 282.741 L 62.106 282.741 L 62.106 275.564 L 60.651 275.564 L 60.651 275.007 L 62.106 274.562 L 62.106 274.109 A 4.993 4.993 0 0 1 62.223 272.977 Q 62.583 271.434 64.059 271.167 A 3.745 3.745 0 0 1 64.726 271.111 A 3.967 3.967 0 0 1 65.287 271.153 Q 65.724 271.216 66.24 271.37 L 65.921 272.357 A 5.983 5.983 0 0 0 65.456 272.226 Q 65.221 272.171 65.014 272.147 A 2.65 2.65 0 0 0 64.704 272.127 A 1.662 1.662 0 0 0 64.303 272.173 A 1.067 1.067 0 0 0 63.672 272.591 Q 63.338 273.055 63.338 274.079 L 63.338 274.606 L 65.409 274.606 Z M 95.349 281.724 L 95.349 282.666 Q 95.168 282.754 94.832 282.814 A 4.609 4.609 0 0 1 94.759 282.826 Q 94.369 282.889 94.057 282.889 Q 92.175 282.889 91.794 281.307 A 3.873 3.873 0 0 1 91.697 280.403 L 91.697 275.564 L 90.532 275.564 L 90.532 274.97 L 91.697 274.458 L 92.217 272.721 L 92.929 272.721 L 92.929 274.606 L 95.289 274.606 L 95.289 275.564 L 92.929 275.564 L 92.929 280.351 Q 92.929 281.086 93.278 281.479 A 1.145 1.145 0 0 0 93.982 281.853 A 1.647 1.647 0 0 0 94.235 281.872 A 4.046 4.046 0 0 0 94.828 281.83 A 3.73 3.73 0 0 0 94.866 281.824 A 6.665 6.665 0 0 0 95.044 281.794 Q 95.214 281.762 95.332 281.729 A 1.845 1.845 0 0 0 95.349 281.724 Z M 71.576 274.547 L 71.406 275.69 Q 70.985 275.597 70.647 275.582 A 2.89 2.89 0 0 0 70.515 275.579 A 2.135 2.135 0 0 0 68.938 276.26 A 2.921 2.921 0 0 0 68.827 276.38 A 2.813 2.813 0 0 0 68.148 277.96 A 3.74 3.74 0 0 0 68.125 278.377 L 68.125 282.741 L 66.893 282.741 L 66.893 274.606 L 67.91 274.606 L 68.051 276.113 L 68.11 276.113 A 4.161 4.161 0 0 1 68.576 275.448 A 3.178 3.178 0 0 1 69.201 274.888 Q 69.84 274.458 70.604 274.458 A 5.656 5.656 0 0 1 71.11 274.479 A 4.128 4.128 0 0 1 71.576 274.547 Z M 80.006 279.904 A 6.364 6.364 0 0 0 80.119 278.666 Q 80.119 276.729 79.113 275.593 A 3.225 3.225 0 0 0 77.616 274.628 A 4.14 4.14 0 0 0 76.401 274.458 A 4.785 4.785 0 0 0 75.541 274.532 A 3.259 3.259 0 0 0 73.64 275.567 A 3.404 3.404 0 0 0 73.222 276.147 Q 72.645 277.152 72.645 278.666 Q 72.645 279.95 73.105 280.907 Q 73.565 281.865 74.412 282.377 A 3.431 3.431 0 0 0 75.199 282.727 A 3.956 3.956 0 0 0 76.349 282.889 A 4.784 4.784 0 0 0 77.184 282.819 A 3.285 3.285 0 0 0 79.117 281.772 Q 79.782 281.03 80.006 279.904 Z M 73.922 278.666 A 6.239 6.239 0 0 0 73.981 279.557 Q 74.047 280.01 74.184 280.376 A 2.585 2.585 0 0 0 74.545 281.041 Q 75.169 281.857 76.378 281.857 A 2.862 2.862 0 0 0 77.133 281.764 A 1.992 1.992 0 0 0 78.215 281.045 A 2.645 2.645 0 0 0 78.627 280.243 Q 78.748 279.872 78.801 279.419 A 6.49 6.49 0 0 0 78.842 278.666 Q 78.842 277.115 78.215 276.31 A 2.027 2.027 0 0 0 76.955 275.558 A 3.107 3.107 0 0 0 76.363 275.504 A 2.932 2.932 0 0 0 75.633 275.59 A 1.962 1.962 0 0 0 74.538 276.298 A 2.547 2.547 0 0 0 74.142 277.064 Q 73.922 277.726 73.922 278.666 Z"
       id="front_labelLayer"
       stroke="#777777"
       fill="#777777"
       style="stroke:#777777;fill:#777777"
       vector-effect="non-scaling-stroke" />
    <path
       d="M 162 239 L 162 260.875 L 159 260.875 L 159 293.125 L 162 293.125 L 162 315 L 188.625 315 L 188.625 312 L 220.875 312 L 220.875 315 L 253.125 315 L 253.125 312 L 285.375 312 L 285.375 315 L 312 315 L 312 293.125 L 315 293.125 L 315 260.875 L 312 260.875 L 312 239 L 285.375 239 L 285.375 242 L 253.125 242 L 253.125 239 L 220.875 239 L 220.875 242 L 188.625 242 L 188.625 239 L 162 239 Z"
       id="left_outsideCutPath"
       stroke="#FF0000"
       stroke-width="0.1"
       style="stroke:#FF0000;stroke-width:0.1;fill:none"
       vector-effect="non-scaling-stroke" />
    <path
       d="M 242.407 274.606 L 242.407 275.564 L 240.336 275.564 L 240.336 282.741 L 239.104 282.741 L 239.104 275.564 L 237.649 275.564 L 237.649 275.007 L 239.104 274.562 L 239.104 274.109 A 4.993 4.993 0 0 1 239.221 272.977 Q 239.581 271.434 241.057 271.167 A 3.745 3.745 0 0 1 241.724 271.111 A 3.967 3.967 0 0 1 242.285 271.153 Q 242.722 271.216 243.238 271.37 L 242.919 272.357 A 5.983 5.983 0 0 0 242.454 272.226 Q 242.219 272.171 242.012 272.147 A 2.65 2.65 0 0 0 241.702 272.127 A 1.662 1.662 0 0 0 241.301 272.173 A 1.067 1.067 0 0 0 240.67 272.591 Q 240.336 273.055 240.336 274.079 L 240.336 274.606 L 242.407 274.606 Z M 236.64 278.117 L 236.64 278.896 L 231.037 278.896 A 4.945 4.945 0 0 0 231.123 279.724 Q 231.288 280.56 231.76 281.071 A 2.239 2.239 0 0 0 232.936 281.733 A 3.392 3.392 0 0 0 233.694 281.813 Q 235.007 281.813 236.291 281.264 L 236.291 282.362 Q 235.638 282.644 235.055 282.767 A 5.172 5.172 0 0 1 234.542 282.846 Q 234.29 282.873 234.004 282.883 A 10.037 10.037 0 0 1 233.649 282.889 A 4.788 4.788 0 0 1 232.451 282.747 A 3.39 3.39 0 0 1 230.803 281.791 A 3.626 3.626 0 0 1 229.935 280.198 Q 229.76 279.541 229.76 278.74 A 6.469 6.469 0 0 1 229.88 277.457 Q 230.038 276.678 230.403 276.071 A 3.648 3.648 0 0 1 230.729 275.616 A 3.157 3.157 0 0 1 233.03 274.468 A 4.355 4.355 0 0 1 233.33 274.458 A 3.754 3.754 0 0 1 234.387 274.599 A 2.856 2.856 0 0 1 235.749 275.464 A 3.445 3.445 0 0 1 236.53 277.038 A 5.014 5.014 0 0 1 236.64 278.117 Z M 247.632 281.724 L 247.632 282.666 Q 247.451 282.754 247.115 282.814 A 4.609 4.609 0 0 1 247.042 282.826 Q 246.652 282.889 246.34 282.889 Q 244.458 282.889 244.077 281.307 A 3.873 3.873 0 0 1 243.98 280.403 L 243.98 275.564 L 242.815 275.564 L 242.815 274.97 L 243.98 274.458 L 244.5 272.721 L 245.212 272.721 L 245.212 274.606 L 247.572 274.606 L 247.572 275.564 L 245.212 275.564 L 245.212 280.351 Q 245.212 281.086 245.561 281.479 A 1.145 1.145 0 0 0 246.265 281.853 A 1.647 1.647 0 0 0 246.519 281.872 A 4.046 4.046 0 0 0 247.111 281.83 A 3.73 3.73 0 0 0 247.149 281.824 A 6.665 6.665 0 0 0 247.327 281.794 Q 247.497 281.762 247.615 281.729 A 1.845 1.845 0 0 0 247.632 281.724 Z M 227.6 271.192 L 227.6 282.741 L 226.368 282.741 L 226.368 271.192 L 227.6 271.192 Z M 231.066 277.894 L 235.319 277.894 A 4.198 4.198 0 0 0 235.268 277.219 Q 235.209 276.857 235.081 276.567 A 1.906 1.906 0 0 0 234.799 276.109 A 1.688 1.688 0 0 0 233.783 275.531 A 2.532 2.532 0 0 0 233.315 275.489 A 2.429 2.429 0 0 0 232.613 275.586 A 1.876 1.876 0 0 0 231.753 276.128 A 2.434 2.434 0 0 0 231.269 276.944 Q 231.115 277.365 231.066 277.894 Z"
       id="left_labelLayer"
       stroke="#777777"
       fill="#777777"
       style="stroke:#777777;fill:#777777"
       vector-effect="non-scaling-stroke" />
    <path
       d="M 321 162 L 321 188.625 L 318 188.625 L 318 220.875 L 321 220.875 L 321 253.125 L 318 253.125 L 318 285.375 L 321 285.375 L 321 312 L 347.625 312 L 347.625 315 L 379.875 315 L 379.875 312 L 412.125 312 L 412.125 315 L 444.375 315 L 444.375 312 L 471 312 L 471 285.375 L 474 285.375 L 474 253.125 L 471 253.125 L 471 220.875 L 474 220.875 L 474 188.625 L 471 188.625 L 471 162 L 444.375 162 L 444.375 159 L 412.125 159 L 412.125 162 L 379.875 162 L 379.875 159 L 347.625 159 L 347.625 162 L 321 162 Z"
       id="top_outsideCutPath"
       stroke="#FF0000"
       stroke-width="0.1"
       style="stroke:#FF0000;stroke-width:0.1;fill:none;fill-opacity:1"
       vector-effect="non-scaling-stroke" />
    <path
       d="M 0 160 L 0 181.875 L 3 181.875 L 3 214.125 L 0 214.125 L 0 236 L 29.625 236 L 29.625 233 L 61.875 233 L 61.875 236 L 94.125 236 L 94.125 233 L 126.375 233 L 126.375 236 L 156 236 L 156 214.125 L 153 214.125 L 153 181.875 L 156 181.875 L 156 160 L 126.375 160 L 126.375 163 L 94.125 163 L 94.125 160 L 61.875 160 L 61.875 163 L 29.625 163 L 29.625 160 L 0 160 Z"
       id="back_outsideCutPath"
       stroke="#FF0000"
       stroke-width="0.1"
       style="stroke:#FF0000;stroke-width:0.1;fill:none"
       vector-effect="non-scaling-stroke" />
    <path
       d="M 88.405 199.536 L 88.465 199.536 A 7.293 7.293 0 0 1 88.645 199.292 Q 88.853 199.022 89.149 198.678 A 26.472 26.472 0 0 1 89.437 198.349 L 92.064 195.566 L 93.527 195.566 L 90.231 199.032 L 93.757 203.7 L 92.265 203.7 L 89.393 199.855 L 88.465 200.657 L 88.465 203.7 L 87.248 203.7 L 87.248 192.151 L 88.465 192.151 L 88.465 198.275 Q 88.465 198.675 88.408 199.505 A 50.343 50.343 0 0 1 88.405 199.536 Z M 63.475 202.653 L 63.386 202.653 L 63.127 203.7 L 62.243 203.7 L 62.243 192.151 L 63.475 192.151 L 63.475 194.957 A 25.687 25.687 0 0 1 63.461 195.825 Q 63.447 196.263 63.416 196.649 L 63.475 196.649 A 2.801 2.801 0 0 1 65.52 195.462 A 4.208 4.208 0 0 1 66.029 195.432 A 3.766 3.766 0 0 1 67.088 195.573 A 2.819 2.819 0 0 1 68.519 196.527 A 3.63 3.63 0 0 1 69.155 197.753 Q 69.312 198.258 69.37 198.863 A 7.908 7.908 0 0 1 69.405 199.625 A 7.224 7.224 0 0 1 69.31 200.841 Q 69.199 201.488 68.96 202.008 A 3.463 3.463 0 0 1 68.511 202.739 A 2.917 2.917 0 0 1 66.438 203.829 A 4.179 4.179 0 0 1 66.029 203.848 A 3.737 3.737 0 0 1 65.089 203.734 A 3.252 3.252 0 0 1 64.578 203.555 Q 63.921 203.262 63.475 202.653 Z M 77.473 203.7 L 76.56 203.7 L 76.315 202.542 L 76.256 202.542 Q 75.826 203.082 75.398 203.376 A 2.27 2.27 0 0 1 75.042 203.577 Q 74.544 203.801 73.841 203.84 A 5.545 5.545 0 0 1 73.532 203.848 A 3.781 3.781 0 0 1 72.763 203.775 Q 72.292 203.677 71.931 203.449 A 2.122 2.122 0 0 1 71.636 203.225 Q 70.949 202.601 70.949 201.451 A 2.132 2.132 0 0 1 72.162 199.439 Q 73.135 198.921 74.89 198.868 L 76.271 198.824 L 76.271 198.319 Q 76.271 197.362 75.859 196.905 Q 75.447 196.449 74.541 196.449 A 4.011 4.011 0 0 0 73.618 196.564 Q 72.973 196.717 72.241 197.072 L 71.862 196.13 A 5.68 5.68 0 0 1 72.958 195.679 A 6.466 6.466 0 0 1 73.179 195.617 A 5.706 5.706 0 0 1 74.616 195.432 Q 75.525 195.432 76.141 195.685 A 2.097 2.097 0 0 1 76.772 196.078 Q 77.473 196.723 77.473 198.148 L 77.473 203.7 Z M 85.437 195.84 L 85.058 196.887 A 5.481 5.481 0 0 0 84.464 196.689 A 6.546 6.546 0 0 0 84.168 196.616 Q 83.685 196.508 83.314 196.508 Q 80.835 196.508 80.835 199.67 Q 80.835 201.169 81.44 201.971 A 1.957 1.957 0 0 0 82.708 202.728 A 2.981 2.981 0 0 0 83.232 202.772 A 5.157 5.157 0 0 0 84.655 202.565 A 6.368 6.368 0 0 0 85.318 202.334 L 85.318 203.425 Q 84.617 203.789 83.604 203.84 A 6.756 6.756 0 0 1 83.262 203.848 A 4.605 4.605 0 0 1 82.142 203.72 A 3.122 3.122 0 0 1 80.527 202.761 Q 79.691 201.822 79.577 200.21 A 7.45 7.45 0 0 1 79.559 199.685 A 6.798 6.798 0 0 1 79.664 198.449 Q 79.792 197.759 80.074 197.216 A 3.397 3.397 0 0 1 80.542 196.53 A 3.19 3.19 0 0 1 82.289 195.526 A 4.836 4.836 0 0 1 83.344 195.417 A 5.56 5.56 0 0 1 84.516 195.543 A 6.149 6.149 0 0 1 84.858 195.626 Q 85.201 195.721 85.429 195.836 A 1.869 1.869 0 0 1 85.437 195.84 Z M 65.85 196.464 A 3.462 3.462 0 0 0 65.18 196.524 Q 64.428 196.673 64.032 197.187 A 2.109 2.109 0 0 0 63.727 197.769 Q 63.475 198.473 63.475 199.625 A 8.146 8.146 0 0 0 63.516 200.467 Q 63.604 201.317 63.888 201.834 A 1.858 1.858 0 0 0 64.047 202.078 Q 64.559 202.74 65.626 202.809 A 3.961 3.961 0 0 0 65.88 202.817 A 2.456 2.456 0 0 0 66.578 202.723 A 1.772 1.772 0 0 0 67.572 201.989 Q 67.97 201.398 68.083 200.438 A 7.059 7.059 0 0 0 68.129 199.61 Q 68.129 198.105 67.629 197.326 A 2.044 2.044 0 0 0 67.572 197.243 A 1.797 1.797 0 0 0 66.428 196.519 A 2.849 2.849 0 0 0 65.85 196.464 Z M 76.241 200.434 L 76.241 199.7 L 75.009 199.751 A 9.046 9.046 0 0 0 74.286 199.804 Q 73.573 199.887 73.127 200.084 A 1.892 1.892 0 0 0 72.89 200.208 A 1.315 1.315 0 0 0 72.263 201.162 A 1.946 1.946 0 0 0 72.241 201.466 A 1.761 1.761 0 0 0 72.284 201.87 Q 72.357 202.18 72.553 202.394 A 1.097 1.097 0 0 0 72.645 202.483 A 1.341 1.341 0 0 0 73.148 202.75 Q 73.346 202.808 73.585 202.825 A 2.771 2.771 0 0 0 73.777 202.832 A 3.392 3.392 0 0 0 74.51 202.757 Q 75.153 202.615 75.584 202.201 Q 76.237 201.573 76.241 200.447 A 3.956 3.956 0 0 0 76.241 200.434 Z"
       id="back_labelLayer"
       stroke="#777777"
       fill="#777777"
       style="stroke:#777777;fill:#777777"
       vector-effect="non-scaling-stroke" />
    <path
       d="M 162 160 L 162 181.875 L 159 181.875 L 159 214.125 L 162 214.125 L 162 236 L 188.625 236 L 188.625 233 L 220.875 233 L 220.875 236 L 253.125 236 L 253.125 233 L 285.375 233 L 285.375 236 L 312 236 L 312 214.125 L 315 214.125 L 315 181.875 L 312 181.875 L 312 160 L 285.375 160 L 285.375 163 L 253.125 163 L 253.125 160 L 220.875 160 L 220.875 163 L 188.625 163 L 188.625 160 L 162 160 Z"
       id="right_outsideCutPath"
       stroke="#FF0000"
       stroke-width="0.1"
       style="stroke:#FF0000;stroke-width:0.1;fill:none"
       vector-effect="non-scaling-stroke" />
    <path
       d="M 246.452 201.948 L 245.22 201.948 L 245.22 196.686 Q 245.22 196.052 245.036 195.623 A 1.466 1.466 0 0 0 244.767 195.202 A 1.389 1.389 0 0 0 244.197 194.838 Q 243.839 194.712 243.349 194.712 Q 242.065 194.712 241.475 195.41 Q 240.936 196.048 240.89 197.43 A 7.952 7.952 0 0 0 240.885 197.696 L 240.885 201.948 L 239.653 201.948 L 239.653 190.4 L 240.885 190.4 L 240.885 193.896 A 11.083 11.083 0 0 1 240.878 194.321 Q 240.864 194.676 240.826 194.942 L 240.9 194.942 Q 241.264 194.356 241.936 194.018 A 3.163 3.163 0 0 1 242.974 193.71 A 3.999 3.999 0 0 1 243.468 193.68 A 4.999 4.999 0 0 1 244.308 193.746 Q 245.187 193.896 245.706 194.389 Q 246.285 194.94 246.415 195.994 A 5.328 5.328 0 0 1 246.452 196.642 L 246.452 201.948 Z M 235.171 193.814 L 237.983 193.814 L 237.983 194.593 L 236.477 194.771 A 2.002 2.002 0 0 1 236.65 195.029 Q 236.726 195.163 236.795 195.322 A 3.798 3.798 0 0 1 236.848 195.451 A 2.37 2.37 0 0 1 236.988 196.017 A 3.044 3.044 0 0 1 237.011 196.397 A 2.824 2.824 0 0 1 236.882 197.272 A 2.284 2.284 0 0 1 236.195 198.304 A 2.732 2.732 0 0 1 235.12 198.87 Q 234.713 198.985 234.23 199.01 A 5.351 5.351 0 0 1 233.953 199.017 A 3.96 3.96 0 0 1 233.495 198.991 A 3.344 3.344 0 0 1 233.271 198.957 A 2.192 2.192 0 0 0 232.917 199.186 Q 232.734 199.334 232.629 199.502 A 0.927 0.927 0 0 0 232.484 200.004 Q 232.484 200.328 232.742 200.487 A 0.685 0.685 0 0 0 232.758 200.497 A 0.864 0.864 0 0 0 232.95 200.576 Q 233.226 200.657 233.701 200.657 L 235.141 200.657 Q 236.462 200.657 237.171 201.214 A 1.802 1.802 0 0 1 237.841 202.362 A 2.707 2.707 0 0 1 237.879 202.832 A 2.668 2.668 0 0 1 237.727 203.754 Q 237.481 204.426 236.838 204.863 A 2.931 2.931 0 0 1 236.796 204.891 A 3.695 3.695 0 0 1 235.843 205.323 Q 234.933 205.6 233.634 205.6 Q 232.038 205.6 231.174 205.006 Q 230.309 204.412 230.309 203.329 Q 230.309 202.587 230.784 202.045 Q 231.259 201.503 232.12 201.31 A 1.279 1.279 0 0 1 231.624 200.909 A 1.518 1.518 0 0 1 231.597 200.872 A 1.142 1.142 0 0 1 231.387 200.255 A 1.415 1.415 0 0 1 231.385 200.182 A 1.409 1.409 0 0 1 231.456 199.728 A 1.249 1.249 0 0 1 231.623 199.403 Q 231.802 199.15 232.139 198.911 A 3.87 3.87 0 0 1 232.372 198.757 A 2.16 2.16 0 0 1 231.434 198.006 A 2.677 2.677 0 0 1 231.345 197.874 A 2.547 2.547 0 0 1 230.954 196.646 A 3.108 3.108 0 0 1 230.947 196.449 A 3.56 3.56 0 0 1 231.041 195.607 A 2.342 2.342 0 0 1 231.749 194.389 Q 232.441 193.764 233.632 193.679 A 5.441 5.441 0 0 1 234.02 193.666 Q 234.658 193.666 235.171 193.814 Z M 252.723 200.932 L 252.723 201.874 Q 252.542 201.961 252.207 202.021 A 4.609 4.609 0 0 1 252.133 202.034 Q 251.744 202.097 251.432 202.097 Q 249.549 202.097 249.168 200.515 A 3.873 3.873 0 0 1 249.072 199.611 L 249.072 194.771 L 247.906 194.771 L 247.906 194.178 L 249.072 193.666 L 249.591 191.929 L 250.304 191.929 L 250.304 193.814 L 252.664 193.814 L 252.664 194.771 L 250.304 194.771 L 250.304 199.559 Q 250.304 200.293 250.653 200.687 A 1.145 1.145 0 0 0 251.356 201.061 A 1.647 1.647 0 0 0 251.61 201.08 A 4.046 4.046 0 0 0 252.203 201.038 A 3.73 3.73 0 0 0 252.241 201.032 A 6.665 6.665 0 0 0 252.419 201.001 Q 252.589 200.97 252.707 200.936 A 1.845 1.845 0 0 0 252.723 200.932 Z M 225.96 193.755 L 225.789 194.898 Q 225.369 194.805 225.031 194.789 A 2.89 2.89 0 0 0 224.899 194.786 A 2.135 2.135 0 0 0 223.321 195.467 A 2.921 2.921 0 0 0 223.21 195.588 A 2.813 2.813 0 0 0 222.531 197.168 A 3.74 3.74 0 0 0 222.509 197.584 L 222.509 201.948 L 221.277 201.948 L 221.277 193.814 L 222.294 193.814 L 222.435 195.321 L 222.494 195.321 A 4.161 4.161 0 0 1 222.959 194.656 A 3.178 3.178 0 0 1 223.585 194.096 Q 224.223 193.666 224.988 193.666 A 5.656 5.656 0 0 1 225.494 193.687 A 4.128 4.128 0 0 1 225.96 193.755 Z M 228.713 193.814 L 228.713 201.948 L 227.481 201.948 L 227.481 193.814 L 228.713 193.814 Z M 234.747 201.763 L 233.271 201.763 A 2.832 2.832 0 0 0 232.76 201.806 Q 232.47 201.859 232.241 201.978 A 1.443 1.443 0 0 0 231.964 202.164 A 1.298 1.298 0 0 0 231.538 202.9 A 1.971 1.971 0 0 0 231.497 203.314 A 1.237 1.237 0 0 0 231.578 203.773 Q 231.695 204.069 231.981 204.268 A 1.446 1.446 0 0 0 232.053 204.316 Q 232.607 204.656 233.639 204.657 A 6.108 6.108 0 0 0 233.649 204.657 Q 235.035 204.657 235.778 204.287 A 2.046 2.046 0 0 0 235.946 204.194 A 1.797 1.797 0 0 0 236.363 203.845 A 1.347 1.347 0 0 0 236.692 202.936 A 1.667 1.667 0 0 0 236.661 202.605 Q 236.58 202.205 236.284 202.019 Q 235.973 201.824 235.244 201.777 A 7.839 7.839 0 0 0 234.747 201.763 Z M 232.165 196.419 A 2.405 2.405 0 0 0 232.214 196.923 Q 232.281 197.236 232.439 197.47 A 1.318 1.318 0 0 0 232.647 197.711 Q 233.082 198.105 233.823 198.144 A 3.172 3.172 0 0 0 233.99 198.148 Q 235.414 198.148 235.714 197.057 A 2.495 2.495 0 0 0 235.794 196.397 Q 235.794 194.564 233.968 194.564 A 2.585 2.585 0 0 0 233.441 194.614 Q 232.946 194.717 232.632 195.031 Q 232.235 195.428 232.175 196.151 A 3.241 3.241 0 0 0 232.165 196.419 Z M 227.585 190.99 A 0.576 0.576 0 0 0 227.458 191.171 Q 227.378 191.346 227.378 191.61 Q 227.378 192.025 227.585 192.229 Q 227.793 192.434 228.105 192.434 Q 228.402 192.434 228.617 192.229 A 0.601 0.601 0 0 0 228.734 192.074 Q 228.788 191.973 228.812 191.843 A 1.275 1.275 0 0 0 228.832 191.61 A 1.409 1.409 0 0 0 228.826 191.476 Q 228.815 191.355 228.781 191.255 A 0.622 0.622 0 0 0 228.617 190.994 A 0.726 0.726 0 0 0 228.105 190.793 A 0.94 0.94 0 0 0 228.043 190.795 A 0.712 0.712 0 0 0 227.585 190.99 Z"
       id="right_labelLayer"
       stroke="#777777"
       fill="#777777"
       style="stroke:#777777;fill:#777777"
       vector-effect="non-scaling-stroke" />
    <path
       d="M 321 3 L 321 29.625 L 318 29.625 L 318 61.875 L 321 61.875 L 321 94.125 L 318 94.125 L 318 126.375 L 321 126.375 L 321 153 L 347.625 153 L 347.625 156 L 379.875 156 L 379.875 153 L 412.125 153 L 412.125 156 L 444.375 156 L 444.375 153 L 471 153 L 471 126.375 L 474 126.375 L 474 94.125 L 471 94.125 L 471 61.875 L 474 61.875 L 474 29.625 L 471 29.625 L 471 3 L 444.375 3 L 444.375 0 L 412.125 0 L 412.125 3 L 379.875 3 L 379.875 0 L 347.625 0 L 347.625 3 L 321 3 Z"
       id="bottom_outsideCutPath"
       stroke="#FF0000"
       stroke-width="0.1"
       style="stroke:#ff0000;stroke-width:0.1000125;fill:none;stroke-opacity:1;stroke-miterlimit:4;stroke-dasharray:none"
       vector-effect="non-scaling-stroke" />
    <path
       d="M 447.325 89.7 L 444.796 89.7 L 444.796 78.837 A 7.46 7.46 0 0 0 444.72 77.74 Q 444.637 77.18 444.461 76.729 A 3.056 3.056 0 0 0 443.943 75.844 A 2.661 2.661 0 0 0 442.705 75.044 Q 442.265 74.902 441.727 74.862 A 5.87 5.87 0 0 0 441.292 74.846 A 6.507 6.507 0 0 0 439.967 74.972 Q 438.587 75.259 437.803 76.202 Q 436.676 77.558 436.676 80.376 L 436.676 89.7 L 434.147 89.7 L 434.147 78.837 A 7.46 7.46 0 0 0 434.072 77.74 Q 433.988 77.18 433.812 76.729 A 3.056 3.056 0 0 0 433.294 75.844 Q 432.555 74.98 431.098 74.864 A 5.922 5.922 0 0 0 430.628 74.846 A 6.281 6.281 0 0 0 429.329 74.972 Q 428.527 75.141 427.93 75.54 A 3.315 3.315 0 0 0 427.147 76.271 A 4.241 4.241 0 0 0 426.518 77.465 Q 426.11 78.618 426.052 80.348 A 17.607 17.607 0 0 0 426.042 80.94 L 426.042 89.7 L 423.513 89.7 L 423.513 73.003 L 425.57 73.003 L 425.981 75.288 L 426.103 75.288 Q 426.819 74.069 428.122 73.384 A 6.004 6.004 0 0 1 430.493 72.718 A 7.252 7.252 0 0 1 431.039 72.698 Q 434.954 72.698 436.158 75.532 L 436.28 75.532 Q 437.026 74.221 438.443 73.46 Q 439.86 72.698 441.673 72.698 Q 443.583 72.698 444.845 73.359 A 4.168 4.168 0 0 1 445.915 74.153 A 4.355 4.355 0 0 1 446.85 75.682 Q 447.325 76.951 447.325 78.807 L 447.325 89.7 Z M 347.204 87.552 L 347.021 87.552 L 346.488 89.7 L 344.675 89.7 L 344.675 65.995 L 347.204 65.995 L 347.204 71.754 Q 347.204 73.688 347.082 75.227 L 347.204 75.227 Q 348.971 72.729 352.445 72.729 A 7.729 7.729 0 0 1 354.62 73.019 A 5.786 5.786 0 0 1 357.556 74.976 A 7.452 7.452 0 0 1 358.863 77.492 Q 359.184 78.529 359.304 79.771 A 16.232 16.232 0 0 1 359.376 81.336 A 14.828 14.828 0 0 1 359.18 83.831 Q 358.953 85.16 358.462 86.227 A 7.108 7.108 0 0 1 357.541 87.727 Q 355.705 90.004 352.445 90.004 A 7.671 7.671 0 0 1 350.517 89.769 A 6.674 6.674 0 0 1 349.467 89.403 Q 348.118 88.801 347.204 87.552 Z M 390.318 87.612 L 390.318 89.547 A 2.487 2.487 0 0 1 390.022 89.664 Q 389.708 89.769 389.257 89.849 A 9.458 9.458 0 0 1 389.106 89.875 Q 388.36 89.996 387.752 90.004 A 6.485 6.485 0 0 1 387.667 90.004 Q 383.803 90.004 383.021 86.758 A 7.949 7.949 0 0 1 382.822 84.901 L 382.822 74.968 L 380.43 74.968 L 380.43 73.749 L 382.822 72.698 L 383.889 69.133 L 385.351 69.133 L 385.351 73.003 L 390.196 73.003 L 390.196 74.968 L 385.351 74.968 L 385.351 84.794 A 5.092 5.092 0 0 0 385.425 85.688 Q 385.512 86.179 385.705 86.568 A 2.453 2.453 0 0 0 386.067 87.11 A 2.349 2.349 0 0 0 387.511 87.879 A 3.38 3.38 0 0 0 388.032 87.917 A 8.305 8.305 0 0 0 389.249 87.83 A 7.655 7.655 0 0 0 389.327 87.818 A 13.68 13.68 0 0 0 389.692 87.756 Q 390.041 87.69 390.284 87.622 A 3.796 3.796 0 0 0 390.318 87.612 Z M 401.332 87.612 L 401.332 89.547 A 2.487 2.487 0 0 1 401.037 89.664 Q 400.722 89.769 400.272 89.849 A 9.458 9.458 0 0 1 400.121 89.875 Q 399.374 89.996 398.767 90.004 A 6.485 6.485 0 0 1 398.681 90.004 Q 394.817 90.004 394.035 86.758 A 7.949 7.949 0 0 1 393.837 84.901 L 393.837 74.968 L 391.445 74.968 L 391.445 73.749 L 393.837 72.698 L 394.903 69.133 L 396.366 69.133 L 396.366 73.003 L 401.21 73.003 L 401.21 74.968 L 396.366 74.968 L 396.366 84.794 A 5.092 5.092 0 0 0 396.439 85.688 Q 396.527 86.179 396.719 86.568 A 2.453 2.453 0 0 0 397.082 87.11 A 2.349 2.349 0 0 0 398.526 87.879 A 3.38 3.38 0 0 0 399.047 87.917 A 8.305 8.305 0 0 0 400.263 87.83 A 7.655 7.655 0 0 0 400.342 87.818 A 13.68 13.68 0 0 0 400.707 87.756 Q 401.056 87.69 401.298 87.622 A 3.796 3.796 0 0 0 401.332 87.612 Z M 377.974 83.877 A 13.063 13.063 0 0 0 378.206 81.336 Q 378.206 79.713 377.862 78.364 A 7.875 7.875 0 0 0 376.142 75.029 A 6.62 6.62 0 0 0 373.069 73.047 A 8.498 8.498 0 0 0 370.574 72.698 Q 366.948 72.698 364.907 74.976 A 6.987 6.987 0 0 0 364.048 76.165 Q 362.865 78.227 362.865 81.336 A 12.651 12.651 0 0 0 363.024 83.385 A 9.355 9.355 0 0 0 363.81 85.937 A 8.312 8.312 0 0 0 363.994 86.297 A 6.846 6.846 0 0 0 366.491 88.953 A 7.042 7.042 0 0 0 368.107 89.672 A 8.121 8.121 0 0 0 370.467 90.004 Q 374.093 90.004 376.15 87.712 A 7.055 7.055 0 0 0 376.99 86.557 Q 377.675 85.385 377.974 83.877 Z M 418.848 83.877 A 13.063 13.063 0 0 0 419.08 81.336 Q 419.08 79.713 418.736 78.364 A 7.875 7.875 0 0 0 417.016 75.029 A 6.62 6.62 0 0 0 413.942 73.047 A 8.498 8.498 0 0 0 411.448 72.698 Q 407.822 72.698 405.78 74.976 A 6.987 6.987 0 0 0 404.922 76.165 Q 403.739 78.227 403.739 81.336 A 12.651 12.651 0 0 0 403.898 83.385 A 9.355 9.355 0 0 0 404.684 85.937 A 8.312 8.312 0 0 0 404.868 86.297 A 6.846 6.846 0 0 0 407.365 88.953 A 7.042 7.042 0 0 0 408.981 89.672 A 8.121 8.121 0 0 0 411.341 90.004 Q 414.967 90.004 417.023 87.712 A 7.055 7.055 0 0 0 417.863 86.557 Q 418.549 85.385 418.848 83.877 Z M 366.024 84.846 A 5.305 5.305 0 0 0 366.765 86.211 A 4.145 4.145 0 0 0 369.465 87.801 A 6.281 6.281 0 0 0 370.528 87.887 A 5.874 5.874 0 0 0 372.078 87.694 A 4.088 4.088 0 0 0 374.299 86.219 A 5.429 5.429 0 0 0 375.144 84.572 Q 375.393 83.811 375.501 82.882 A 13.321 13.321 0 0 0 375.586 81.336 Q 375.586 79.293 375.056 77.881 A 5.207 5.207 0 0 0 374.299 76.499 A 4.16 4.16 0 0 0 371.712 74.956 A 6.378 6.378 0 0 0 370.498 74.846 Q 368.014 74.846 366.75 76.476 A 5.229 5.229 0 0 0 365.937 78.047 Q 365.697 78.769 365.585 79.652 A 13.363 13.363 0 0 0 365.485 81.336 Q 365.485 83.412 366.024 84.846 Z M 406.898 84.846 A 5.305 5.305 0 0 0 407.639 86.211 A 4.145 4.145 0 0 0 410.338 87.801 A 6.281 6.281 0 0 0 411.402 87.887 A 5.874 5.874 0 0 0 412.952 87.694 A 4.088 4.088 0 0 0 415.172 86.219 A 5.429 5.429 0 0 0 416.018 84.572 Q 416.266 83.811 416.375 82.882 A 13.321 13.321 0 0 0 416.46 81.336 Q 416.46 79.293 415.93 77.881 A 5.207 5.207 0 0 0 415.172 76.499 A 4.16 4.16 0 0 0 412.586 74.956 A 6.378 6.378 0 0 0 411.371 74.846 Q 408.888 74.846 407.624 76.476 A 5.229 5.229 0 0 0 406.811 78.047 Q 406.571 78.769 406.459 79.652 A 13.363 13.363 0 0 0 406.359 81.336 Q 406.359 83.412 406.898 84.846 Z M 352.079 74.846 A 7.106 7.106 0 0 0 350.703 74.97 Q 349.919 75.125 349.324 75.474 A 3.363 3.363 0 0 0 348.347 76.331 Q 347.343 77.636 347.221 80.512 A 19.484 19.484 0 0 0 347.204 81.336 Q 347.204 84.325 348.051 85.869 A 3.814 3.814 0 0 0 348.377 86.371 A 3.669 3.669 0 0 0 350.238 87.627 Q 350.86 87.822 351.619 87.87 A 8.131 8.131 0 0 0 352.14 87.887 A 5.041 5.041 0 0 0 353.572 87.695 A 3.637 3.637 0 0 0 355.614 86.188 A 5.805 5.805 0 0 0 356.332 84.634 Q 356.557 83.897 356.663 83.003 A 14.49 14.49 0 0 0 356.756 81.305 A 14.941 14.941 0 0 0 356.666 79.603 Q 356.452 77.741 355.729 76.617 A 4.195 4.195 0 0 0 355.614 76.446 A 3.688 3.688 0 0 0 353.266 74.96 A 5.849 5.849 0 0 0 352.079 74.846 Z"
       id="bottom_labelLayer"
       stroke="#777777"
       fill="#777777"
       style="stroke:#777777;fill:#777777"
       vector-effect="non-scaling-stroke" />
    <path
       style="fill:none;stroke:#ff0000;stroke-width:0.336467;stroke-miterlimit:4;stroke-dasharray:none;stroke-opacity:1"
       d="m 386.49488,281.76318 c -6.19999,-0.71284 -14.14432,-4.22908 -18.43353,-8.15877 -3.15402,-2.88966 -6.47242,-9.25296 -7.59333,-14.56078 -0.68441,-3.24103 -0.62047,-9.7431 0.13165,-13.37449 1.24317,-6.00306 3.29757,-10.36619 7.35775,-15.6264 6.47853,-8.39328 13.88146,-12.40355 24.44218,-13.24063 l 3.31171,-0.2625 -1.49921,-0.84743 c -4.52806,-2.55946 -11.87129,-3.71645 -15.96026,-2.5147 -1.15782,0.3403 -4.13837,1.70002 -6.62345,3.02163 -4.38322,2.33109 -7.75982,3.68478 -10.23855,4.10464 -2.65965,0.45053 -10.9889,0.63408 -10.9889,0.24214 0,-0.21628 0.12422,-0.39322 0.27586,-0.39322 0.15161,0 1.33714,-0.87733 2.63432,-1.94961 1.57856,-1.3049 4.79762,-4.94768 9.73459,-11.01592 4.05685,-4.98647 8.49993,-10.12532 9.87352,-11.41964 2.84316,-2.67914 9.16811,-7.57772 9.39468,-7.27605 0.0827,0.11013 -0.0176,0.27566 -0.22451,0.36762 -0.46447,0.20709 -8.24651,10.70076 -8.08507,10.90227 0.0642,0.0802 1.92632,-0.98753 4.13792,-2.37268 5.27484,-3.30367 11.12048,-6.21405 16.51533,-8.22248 4.13733,-1.54028 16.54474,-5.22889 16.7455,-4.97828 0.0516,0.0645 -1.35788,0.92788 -3.13237,1.91864 -3.933,2.1959 -11.4697,7.20454 -16.15394,10.73538 -3.62958,2.73585 -8.89968,7.06897 -8.89968,7.31739 0,0.0796 0.79564,-0.0867 1.76807,-0.36993 9.17553,-2.67155 12.23961,-3.27926 16.74746,-3.32162 3.92701,-0.037 4.84545,0.0751 7.04207,0.85846 3.20823,1.14415 7.98013,4.15637 13.73146,8.66788 6.17652,4.84502 8.58875,6.1235 11.94291,6.3296 2.99135,0.18388 5.50761,-0.40489 10.24993,-2.39817 1.68545,-0.70841 3.20254,-1.28804 3.37134,-1.28804 0.50998,0 -2.85938,4.08802 -4.79066,5.81245 -5.46631,4.88088 -10.87498,6.42853 -21.43702,6.1341 l -5.95994,-0.16608 -3.67177,-1.55945 c -5.78455,-2.45677 -10.69853,-2.75122 -17.29352,-1.03628 -6.43443,1.6732 -10.96134,4.82902 -15.4546,10.77382 -6.06113,8.01916 -7.7412,16.51714 -5.41443,27.38703 0.86845,4.05718 2.65852,8.90649 4.06099,11.00131 1.99208,2.97546 6.28309,5.77343 10.22584,6.66779 4.5182,1.02491 11.12513,-0.47778 15.34288,-3.48961 2.47917,-1.77034 5.23403,-5.46136 6.47002,-8.66865 1.55675,-4.03956 2.04374,-7.15337 1.92283,-12.29436 -0.0974,-4.13903 -0.15474,-4.4739 -1.23186,-7.19376 -1.29422,-3.26795 -3.98337,-6.68839 -6.23895,-7.93561 -1.93848,-1.07188 -8.02077,-1.36621 -10.13352,-0.49036 -3.04577,1.26261 -4.97028,4.31407 -4.97001,7.88025 2.2e-4,2.46718 0.29185,3.38847 1.78717,5.64587 1.35066,2.03907 1.7095,3.56676 1.27844,5.4427 -1.3124,5.71137 -7.45709,6.88552 -10.84329,2.07203 -1.44164,-2.0493 -2.10036,-4.12242 -2.108,-6.63432 -0.0237,-7.75157 5.632,-15.69228 12.96095,-18.19773 1.4667,-0.50137 3.02842,-0.65605 6.45116,-0.63889 3.86516,0.0196 4.95412,0.16491 7.5563,1.00977 3.7307,1.2113 6.31188,2.40824 9.87908,4.58111 3.28495,2.00094 4.67704,2.43326 7.87408,2.44535 2.99837,0.0117 4.80103,-0.37925 10.3668,-2.24625 2.401,-0.80542 4.90736,-1.5783 5.56972,-1.71754 l 1.20425,-0.25317 -1.21229,1.11527 c -1.35452,1.24608 -2.5686,3.00578 -5.98606,8.67624 -4.18058,6.9367 -7.2695,9.96509 -10.67816,10.46893 l -1.41745,0.20955 -0.35933,2.869 c -0.47047,3.75648 -2.20813,8.15958 -4.42791,11.21998 l -1.69641,2.33883 4.73082,0.10349 4.73078,0.10367 -2.98141,1.56962 c -7.13093,3.75417 -16.84022,5.82195 -29.32464,6.24533 -2.23543,0.0759 -5.09573,0.0202 -6.35625,-0.12578 z"
       id="path849" />
  </g>
</svg>
