<?xml version="1.0" encoding="UTF-8" standalone="no"?>
<svg
   xmlns:dc="http://purl.org/dc/elements/1.1/"
   xmlns:cc="http://creativecommons.org/ns#"
   xmlns:rdf="http://www.w3.org/1999/02/22-rdf-syntax-ns#"
   xmlns:svg="http://www.w3.org/2000/svg"
   xmlns="http://www.w3.org/2000/svg"
   xmlns:sodipodi="http://sodipodi.sourceforge.net/DTD/sodipodi-0.dtd"
   xmlns:inkscape="http://www.inkscape.org/namespaces/inkscape"
   width="474mm"
   height="315mm"
   viewBox="0 0 474 315"
   version="1.1"
   preserveAspectRatio="xMidYMid meet"
   id="svg15"
   sodipodi:docname="medidas final.svg"
   inkscape:version="1.0.2 (394de47547, 2021-03-26)">
  <metadata
     id="metadata21">
    <rdf:RDF>
      <cc:Work
         rdf:about="">
        <dc:format>image/svg+xml</dc:format>
        <dc:type
           rdf:resource="http://purl.org/dc/dcmitype/StillImage" />
        <dc:title></dc:title>
      </cc:Work>
    </rdf:RDF>
  </metadata>
  <defs
     id="defs19" />
  <sodipodi:namedview
     pagecolor="#ffffff"
     bordercolor="#666666"
     borderopacity="1"
     objecttolerance="10"
     gridtolerance="10"
     guidetolerance="10"
     inkscape:pageopacity="0"
     inkscape:pageshadow="2"
     inkscape:window-width="1853"
     inkscape:window-height="1025"
     id="namedview17"
     showgrid="false"
     inkscape:zoom="0.35355339"
     inkscape:cx="833.21883"
     inkscape:cy="191.20036"
     inkscape:window-x="67"
     inkscape:window-y="27"
     inkscape:window-maximized="1"
     inkscape:current-layer="svgGroup" />
  <g
     id="svgGroup"
     stroke-linecap="round"
     fill-rule="evenodd"
     font-size="12px"
     stroke="#000"
     stroke-width="0.25mm"
     fill="none"
     style="fill:none;stroke:#000000;stroke-width:0.25mm"
     transform="translate(0.97097997,-0.16026751)">
    <path
       d="m 0,252.20901 v 18.07306 h 3 v 26.64486 H 0 V 315 h 29.625 v -2.47859 h 32.25 V 315 h 32.25 v -2.47859 h 32.25 V 315 H 156 v -18.07307 h -3 v -26.64486 h 3 v -18.07306 h -29.625 v 2.4786 h -32.25 v -2.4786 h -32.25 v 2.4786 h -32.25 v -2.4786 z"
       id="front_outsideCutPath"
       stroke="#FF0000"
       stroke-width="0.1"
       style="stroke:#ff0000;stroke-width:0.0908954"
       vector-effect="non-scaling-stroke" />
    <path
       d="m 162,252.18967 v 18.07863 h -3 v 26.65307 h 3 V 315 h 26.625 v -2.47935 h 32.25 V 315 h 32.25 v -2.47935 h 32.25 V 315 H 312 v -18.07863 h 3 V 270.2683 h -3 v -18.07863 h -26.625 v 2.47936 h -32.25 v -2.47936 h -32.25 v 2.47936 h -32.25 v -2.47936 z"
       id="left_outsideCutPath"
       stroke="#FF0000"
       stroke-width="0.1"
       style="stroke:#ff0000;stroke-width:0.0909094"
       vector-effect="non-scaling-stroke" />
    <path
       d="m 321,162 v 26.625 h -3 v 32.25 h 3 v 32.25 h -3 v 32.25 h 3 V 312 h 26.625 v 3 h 32.25 v -3 h 32.25 v 3 h 32.25 v -3 H 471 v -26.625 h 3 v -32.25 h -3 v -32.25 h 3 v -32.25 h -3 V 162 h -26.625 v -3 h -32.25 v 3 h -32.25 v -3 h -32.25 v 3 z"
       id="top_outsideCutPath"
       stroke="#FF0000"
       stroke-width="0.1"
       style="stroke:#ff0000;stroke-width:0.1"
       vector-effect="non-scaling-stroke" />
    <path
       d="m -0.00478163,178.67947 v 16.49989 H 2.9954023 v 24.32554 h -3.00018393 v 16.49988 H 29.622034 v -2.26284 h 32.251977 v 2.26284 h 32.251978 v -2.26284 h 32.251981 v 2.26284 h 29.62681 V 219.5049 h -3.00018 v -24.32554 h 3.00018 v -16.49989 h -29.62681 v 2.26284 H 94.125989 v -2.26284 H 61.874011 v 2.26284 H 29.622034 v -2.26284 z"
       id="back_outsideCutPath"
       stroke="#FF0000"
       stroke-width="0.1"
       style="stroke:#ff0000;stroke-width:0.0868519"
       vector-effect="non-scaling-stroke" />
    <path
       d="m 161.99545,178.62876 v 16.51446 h -3.00018 v 24.34704 h 3.00018 v 16.51447 h 26.62662 v -2.26484 h 32.25195 v 2.26484 h 32.25196 v -2.26484 h 32.25195 v 2.26484 h 26.62662 v -16.51447 h 3.00018 v -24.34704 h -3.00018 v -16.51446 h -26.62662 v 2.26483 h -32.25195 v -2.26483 h -32.25196 v 2.26483 h -32.25195 v -2.26483 z"
       id="right_outsideCutPath"
       stroke="#FF0000"
       stroke-width="0.1"
       style="stroke:#ff0000;stroke-width:0.0868903"
       vector-effect="non-scaling-stroke" />
    <path
       d="m 321,3 v 26.625 h -3 v 32.25 h 3 v 32.25 h -3 v 32.25 h 3 V 153 h 26.625 v 3 h 32.25 v -3 h 32.25 v 3 h 32.25 v -3 H 471 v -26.625 h 3 v -32.25 h -3 v -32.25 h 3 v -32.25 h -3 V 3 H 444.375 V 0 h -32.25 v 3 h -32.25 V 0 h -32.25 v 3 z"
       id="bottom_outsideCutPath"
       stroke="#FF0000"
       stroke-width="0.1"
       style="stroke:#ff0000;stroke-width:0.1"
       vector-effect="non-scaling-stroke" />
    <path
       style="fill:#ffffff;stroke:#ff0000;stroke-width:0.226081;stroke-miterlimit:4;stroke-dasharray:none;stroke-opacity:1"
       d="m 387.20679,269.55147 c -4.33135,-0.46068 -9.88131,-2.73311 -12.87778,-5.27275 -2.20342,-1.8675 -4.52167,-5.97989 -5.30473,-9.41016 -0.47816,-2.09458 -0.43347,-6.29666 0.092,-8.64351 0.86847,-3.87959 2.3037,-6.69934 5.14018,-10.09884 4.52592,-5.42431 9.69768,-8.01603 17.07544,-8.557 l 2.3136,-0.16965 -1.04737,-0.54766 c -3.16333,-1.6541 -8.29335,-2.40183 -11.14995,-1.62517 -0.80886,0.21992 -2.89109,1.09866 -4.62718,1.95278 -3.06214,1.50651 -5.42106,2.38135 -7.15272,2.6527 -1.85804,0.29116 -7.6769,0.40978 -7.6769,0.15648 0,-0.13977 0.0867,-0.25412 0.19271,-0.25412 0.10605,0 0.93414,-0.567 1.84035,-1.25997 1.1028,-0.84332 3.35165,-3.19753 6.80064,-7.11924 2.83415,-3.2226 5.93812,-6.54367 6.89771,-7.38015 1.98627,-1.73144 6.4049,-4.89724 6.56319,-4.70228 0.0578,0.0712 -0.0123,0.17815 -0.15685,0.23758 -0.32447,0.13384 -5.76106,6.91556 -5.64828,7.04579 0.0448,0.0518 1.34573,-0.63821 2.89079,-1.53338 3.68502,-2.13506 7.76884,-4.01595 11.53773,-5.31393 2.89034,-0.99543 11.55824,-3.37927 11.69851,-3.21731 0.0361,0.0417 -0.94864,0.59967 -2.1883,1.23996 -2.74762,1.41914 -8.0128,4.65606 -11.28526,6.93794 -2.53564,1.76809 -6.21736,4.56845 -6.21736,4.72899 0,0.0515 0.55583,-0.056 1.23518,-0.23908 6.41009,-1.72653 8.55066,-2.11927 11.69989,-2.14665 2.74343,-0.0239 3.38505,0.0486 4.91964,0.5548 2.24127,0.73942 5.57496,2.68612 9.59287,5.60177 4.31496,3.13118 6.00016,3.95742 8.34341,4.09062 2.08978,0.11883 3.84765,-0.26167 7.16067,-1.54986 1.17747,-0.45783 2.23731,-0.83242 2.35522,-0.83242 0.35628,0 -1.99756,2.64195 -3.34678,3.7564 -3.8188,3.15435 -7.59732,4.15455 -14.97604,3.96427 l -4.16364,-0.10733 -2.56515,-1.00782 c -4.04111,-1.58774 -7.47405,-1.77803 -12.08136,-0.66972 -4.49513,1.08134 -7.65765,3.12085 -10.79668,6.96278 -4.23433,5.18253 -5.40804,10.6745 -3.78256,17.69936 0.60671,2.62203 1.85727,5.75598 2.83706,7.1098 1.39166,1.92294 4.38939,3.73118 7.14381,4.30918 3.15646,0.66237 7.77211,-0.30878 10.71866,-2.25523 1.73195,-1.14411 3.65651,-3.5295 4.52,-5.60227 1.08754,-2.61064 1.42776,-4.62299 1.34329,-7.94545 -0.068,-2.67493 -0.10815,-2.89134 -0.86058,-4.6491 -0.90416,-2.11197 -2.78282,-4.32249 -4.35857,-5.12853 -1.35423,-0.69272 -5.60336,-0.88294 -7.07935,-0.3169 -2.12779,0.81598 -3.47228,2.78804 -3.47208,5.09275 1.5e-4,1.59446 0.20388,2.18986 1.24852,3.64875 0.94358,1.31778 1.19427,2.30508 0.89312,3.51744 -0.91684,3.69108 -5.20957,4.44989 -7.57519,1.33909 -1.00714,-1.3244 -1.46732,-2.66419 -1.47267,-4.28755 -0.0165,-5.00959 3.93457,-10.14142 9.05462,-11.76061 1.02464,-0.32403 2.11568,-0.42399 4.50682,-0.4129 2.70024,0.0126 3.46099,0.10657 5.27888,0.65258 2.60628,0.78283 4.40953,1.55637 6.90159,2.96063 2.2949,1.29314 3.26743,1.57254 5.5009,1.58035 2.09468,0.008 3.35401,-0.2451 7.24231,-1.45168 1.67736,-0.52052 3.4283,-1.02 3.89105,-1.10999 l 0.84129,-0.16362 -0.84693,0.72076 c -0.94627,0.80531 -1.79443,1.94255 -4.1819,5.60718 -2.92058,4.48297 -5.07851,6.44012 -7.45982,6.76574 l -0.99025,0.13542 -0.25103,1.85415 c -0.32866,2.42769 -1.5426,5.27327 -3.09335,7.25111 l -1.18514,1.51152 3.30498,0.0669 3.30496,0.067 -2.08284,1.01439 c -4.98171,2.4262 -11.76469,3.76254 -20.48639,4.03616 -1.56167,0.0491 -3.55991,0.013 -4.4405,-0.0813 z"
       id="path849" />
    <ellipse
       style="fill:#ffffff;fill-rule:evenodd;stroke:#de0000;stroke-width:0.285317;stroke-miterlimit:4;stroke-dasharray:none;stroke-opacity:1;stop-color:#000000"
       id="path854"
       cx="183.21577"
       cy="226.39162"
       rx="4.9015737"
       ry="4.8239169" />
    <ellipse
       style="fill:#ffffff;fill-rule:evenodd;stroke:#de0000;stroke-width:0.215813;stroke-opacity:1;stop-color:#000000"
       id="path856"
       cx="201.22205"
       cy="225.97055"
       rx="5.1021762"
       ry="4.8850851" />
    <ellipse
       style="fill:#ffffff;fill-rule:evenodd;stroke:#de0000;stroke-width:0.198626;stroke-opacity:1;stop-color:#000000"
       id="path858"
       cx="219.61456"
       cy="225.46367"
       rx="5.0147986"
       ry="4.9384966" />
    <ellipse
       style="fill:#ffffff;fill-rule:evenodd;stroke:#ff0a0a;stroke-width:0.180639;stroke-opacity:1;stop-color:#000000"
       id="path864"
       cx="193.45572"
       cy="300.785"
       rx="4.5122833"
       ry="4.5267248" />
  </g>
</svg>
