<?xml version="1.0" encoding="UTF-8" standalone="no"?>
<svg
   xmlns:dc="http://purl.org/dc/elements/1.1/"
   xmlns:cc="http://creativecommons.org/ns#"
   xmlns:rdf="http://www.w3.org/1999/02/22-rdf-syntax-ns#"
   xmlns:svg="http://www.w3.org/2000/svg"
   xmlns="http://www.w3.org/2000/svg"
   xmlns:sodipodi="http://sodipodi.sourceforge.net/DTD/sodipodi-0.dtd"
   xmlns:inkscape="http://www.inkscape.org/namespaces/inkscape"
   width="210mm"
   height="297mm"
   viewBox="0 0 210 297"
   version="1.1"
   id="svg858"
   inkscape:version="1.0.2 (394de47547, 2021-03-26)"
   sodipodi:docname="pieza de la caja.svg">
  <defs
     id="defs852" />
  <sodipodi:namedview
     id="base"
     pagecolor="#ffffff"
     bordercolor="#666666"
     borderopacity="1.0"
     inkscape:pageopacity="0.0"
     inkscape:pageshadow="2"
     inkscape:zoom="0.80984043"
     inkscape:cx="419.96717"
     inkscape:cy="545.55496"
     inkscape:document-units="mm"
     inkscape:current-layer="layer1"
     inkscape:document-rotation="0"
     showgrid="false"
     inkscape:window-width="1853"
     inkscape:window-height="1025"
     inkscape:window-x="67"
     inkscape:window-y="27"
     inkscape:window-maximized="1" />
  <metadata
     id="metadata855">
    <rdf:RDF>
      <cc:Work
         rdf:about="">
        <dc:format>image/svg+xml</dc:format>
        <dc:type
           rdf:resource="http://purl.org/dc/dcmitype/StillImage" />
        <dc:title></dc:title>
      </cc:Work>
    </rdf:RDF>
  </metadata>
  <g
     inkscape:label="Capa 1"
     inkscape:groupmode="layer"
     id="layer1">
    <path
       d="m 26.86299,43.01841 v 17.805 h -5 v 24.39 h 5 v 17.805 h 14.025 v -5.000001 h 24.389998 v 5.000001 H 89.667997 V 98.018409 H 114.058 v 5.000001 h 24.39 v -5.000001 h 24.39 v 5.000001 h 14.025 v -17.805 h 5 v -24.39 h -5 v -17.805 h -14.025 v 5 h -24.39 v -5 h -24.39 v 5 H 89.667997 v -5 H 65.277988 v 5 H 40.88799 v -5 z"
       id="right_outsideCutPath"
       stroke="#FF0000"
       stroke-width="0.1"
       style="fill:none;stroke:#ff0000;stroke-width:0.1"
       vector-effect="non-scaling-stroke" />
    <path
       d="m 26.780595,134.71762 v 17.805 h -5 v 24.39 h 5 v 17.805 h 14.025 v -5 h 24.389998 v 5 h 24.390004 v -5 h 24.389993 v 5 h 24.39 v -5 h 24.39 v 5 h 14.025 v -17.805 h 5 v -24.39 h -5 v -17.805 h -14.025 v 5 h -24.39 v -5 h -24.39 v 5 H 89.585597 v -5 H 65.195593 v 5 H 40.805595 v -5 z"
       id="right_outsideCutPath-3"
       stroke="#FF0000"
       stroke-width="0.1"
       style="fill:none;stroke:#ff0000;stroke-width:0.1"
       vector-effect="non-scaling-stroke" />
    <rect
       style="fill:none;fill-rule:evenodd;stroke:#ff0000;stroke-width:0.288;stop-color:#000000;stroke-opacity:1;stroke-miterlimit:4;stroke-dasharray:none"
       id="rect1439"
       width="79.961731"
       height="18.000782"
       x="34.509663"
       y="73.475822" />
    <rect
       style="fill:none;fill-rule:evenodd;stroke:#ff0000;stroke-width:0.288;stroke-miterlimit:4;stroke-dasharray:none;stroke-opacity:1;stop-color:#000000"
       id="rect1439-6"
       width="79.961731"
       height="18.000782"
       x="33.966888"
       y="164.12823" />
  </g>
</svg>
